<svg xmlns="http://www.w3.org/2000/svg" version="1.1" xmlns:xlink="http://www.w3.org/1999/xlink" width="200" height="200"><svg xmlns="http://www.w3.org/2000/svg" version="1.1" xmlns:xlink="http://www.w3.org/1999/xlink" width="200" height="200"><svg xmlns="http://www.w3.org/2000/svg" version="1.1" xmlns:xlink="http://www.w3.org/1999/xlink" viewBox="0 0 200 200"><rect width="200" height="200" fill="url('#gradient')"></rect><defs><linearGradient id="gradient" gradientTransform="rotate(360 0.5 0.5)"><stop offset="0%" stop-color="#ff5900"></stop><stop offset="100%" stop-color="#4ef700"></stop></linearGradient></defs><g><g fill="#445272" transform="matrix(3.1867219917012446,0,0,3.1867219917012446,9.625189805426544,122.34063936961637)" stroke="#c8512e" stroke-width="0.2"><path d="M1.46-13.19L4.76-13.19L4.76-10.57L6.49-10.57L6.49-8.28L4.76-8.28L4.76-3.45Q4.76-2.85 4.97-2.62Q5.19-2.38 5.82-2.38L5.82-2.38Q6.31-2.38 6.64-2.44L6.64-2.44L6.64-0.09Q5.75 0.20 4.79 0.20L4.79 0.20Q3.09 0.20 2.28-0.61Q1.46-1.41 1.46-3.04L1.46-3.04L1.46-8.28L0.12-8.28L0.12-10.57L1.46-10.57L1.46-13.19ZM12.90 0.20L12.90 0.20Q10.47 0.20 8.96-1.25Q7.46-2.71 7.46-5.03L7.46-5.03L7.46-5.30Q7.46-6.92 8.06-8.16Q8.66-9.40 9.81-10.08Q10.97-10.76 12.55-10.76L12.55-10.76Q14.78-10.76 16.06-9.38Q17.35-8.00 17.35-5.53L17.35-5.53L17.35-4.25L10.81-4.25Q10.99-3.36 11.58-2.85Q12.18-2.34 13.13-2.34L13.13-2.34Q14.69-2.34 15.57-3.44L15.57-3.44L17.07-1.66Q16.46-0.81 15.33-0.31Q14.20 0.20 12.90 0.20ZM12.53-8.22L12.53-8.22Q11.08-8.22 10.81-6.31L10.81-6.31L14.13-6.31L14.13-6.56Q14.15-7.35 13.73-7.79Q13.31-8.22 12.53-8.22ZM27.92 0L24.63 0Q24.45-0.32 24.32-0.95L24.32-0.95Q23.41 0.20 21.78 0.20L21.78 0.20Q20.28 0.20 19.24-0.71Q18.19-1.61 18.19-2.98L18.19-2.98Q18.19-4.70 19.46-5.58Q20.73-6.46 23.15-6.46L23.15-6.46L24.17-6.46L24.17-7.01Q24.17-8.47 22.91-8.47L22.91-8.47Q21.74-8.47 21.74-7.31L21.74-7.31L18.45-7.31Q18.45-8.85 19.75-9.80Q21.05-10.76 23.08-10.76Q25.10-10.76 26.27-9.78Q27.44-8.79 27.47-7.07L27.47-7.07L27.47-2.39Q27.49-0.94 27.92-0.17L27.92-0.17L27.92 0ZM22.57-2.15L22.57-2.15Q23.18-2.15 23.59-2.41Q23.99-2.68 24.17-3.01L24.17-3.01L24.17-4.70L23.21-4.70Q21.49-4.70 21.49-3.15L21.49-3.15Q21.49-2.71 21.80-2.43Q22.10-2.15 22.57-2.15ZM29.32-10.57L32.40-10.57L32.51-9.33Q33.63-10.76 35.53-10.76L35.53-10.76Q37.53-10.76 38.23-9.17L38.23-9.17Q39.31-10.76 41.34-10.76L41.34-10.76Q44.55-10.76 44.64-6.88L44.64-6.88L44.64 0L41.34 0L41.34-6.67Q41.34-7.48 41.06-7.85Q40.79-8.22 40.07-8.22L40.07-8.22Q39.09-8.22 38.61-7.35L38.61-7.35L38.62-7.22L38.62 0L35.32 0L35.32-6.65Q35.32-7.48 35.06-7.85Q34.79-8.22 34.05-8.22L34.05-8.22Q33.11-8.22 32.61-7.35L32.61-7.35L32.61 0L29.32 0L29.32-10.57ZM55.16-14.22L55.16-5.56L56.60-5.56L56.60-3.02L55.16-3.02L55.16 0L51.87 0L51.87-3.02L46.37-3.02L46.17-5.03L51.87-14.19L51.87-14.22L55.16-14.22ZM51.66-9.60L49.31-5.56L51.87-5.56L51.87-9.93L51.66-9.60Z"></path></g></g></svg></svg><style>@media (prefers-color-scheme: light) { :root { filter: none; } }
@media (prefers-color-scheme: dark) { :root { filter: none; } }
</style></svg>